<svg width="54" height="54" viewBox="0 0 54 54" fill="none" xmlns="http://www.w3.org/2000/svg">
<path fill-rule="evenodd" clip-rule="evenodd" d="M42.75 13.5C44.5402 13.5 46.2571 14.2112 47.523 15.477C48.7888 16.7429 49.5 18.4598 49.5 20.25V33.75C49.5 35.5402 48.7888 37.2571 47.523 38.523C46.2571 39.7888 44.5402 40.5 42.75 40.5H11.25C9.45979 40.5 7.7429 39.7888 6.47703 38.523C5.21116 37.2571 4.5 35.5402 4.5 33.75V20.25C4.5 18.4598 5.21116 16.7429 6.47703 15.477C7.7429 14.2112 9.45979 13.5 11.25 13.5H42.75ZM42.75 31.5H11.25C10.6989 31.5001 10.167 31.7024 9.75516 32.0686C9.34333 32.4348 9.08023 32.9394 9.01575 33.4868L9 33.75V36H45V33.75C44.9999 33.1989 44.7976 32.667 44.4314 32.2552C44.0652 31.8433 43.5606 31.5802 43.0133 31.5158L42.75 31.5ZM40.5 20.25C39.9033 20.25 39.331 20.4871 38.909 20.909C38.4871 21.331 38.25 21.9033 38.25 22.5C38.25 23.0967 38.4871 23.669 38.909 24.091C39.331 24.5129 39.9033 24.75 40.5 24.75C41.0967 24.75 41.669 24.5129 42.091 24.091C42.5129 23.669 42.75 23.0967 42.75 22.5C42.75 21.9033 42.5129 21.331 42.091 20.909C41.669 20.4871 41.0967 20.25 40.5 20.25Z" fill="#69696B"/>
</svg>
