<svg width="54" height="54" viewBox="0 0 54 54" fill="none" xmlns="http://www.w3.org/2000/svg">
<path d="M25.6789 0.273828L2.05391 10.3988C0.577345 11.0316 -0.245311 12.6137 0.0816421 14.1746C0.408595 15.7355 1.77969 16.8746 3.38281 16.8746V17.7184C3.38281 19.1211 4.51133 20.2496 5.91406 20.2496H48.1016C49.5043 20.2496 50.6328 19.1211 50.6328 17.7184V16.8746C52.2359 16.8746 53.6176 15.7461 53.934 14.1746C54.2504 12.6031 53.4277 11.0211 51.9617 10.3988L28.3367 0.273828C27.493 -0.0847656 26.5227 -0.0847656 25.6789 0.273828ZM13.5078 23.6246H6.75781V44.3281C6.69453 44.3598 6.63125 44.402 6.56797 44.4441L1.50547 47.8191C0.271486 48.6418 -0.287499 50.1816 0.144923 51.6055C0.577345 53.0293 1.8957 53.9996 3.38281 53.9996H50.6328C52.1199 53.9996 53.4277 53.0293 53.8602 51.6055C54.2926 50.1816 53.7441 48.6418 52.4996 47.8191L47.4371 44.4441C47.3738 44.402 47.3105 44.3703 47.2473 44.3281L47.2578 23.6246H40.5078V43.8746H36.2891V23.6246H29.5391V43.8746H24.4766V23.6246H17.7266V43.8746H13.5078V23.6246ZM27.0078 6.74961C27.9029 6.74961 28.7614 7.10519 29.3943 7.73812C30.0272 8.37106 30.3828 9.2295 30.3828 10.1246C30.3828 11.0197 30.0272 11.8782 29.3943 12.5111C28.7614 13.144 27.9029 13.4996 27.0078 13.4996C26.1127 13.4996 25.2543 13.144 24.6213 12.5111C23.9884 11.8782 23.6328 11.0197 23.6328 10.1246C23.6328 9.2295 23.9884 8.37106 24.6213 7.73812C25.2543 7.10519 26.1127 6.74961 27.0078 6.74961Z" fill="white"/>
</svg>
