<svg width="54" height="54" viewBox="0 0 54 54" fill="none" xmlns="http://www.w3.org/2000/svg">
<path d="M30.375 48.9375H23.625C23.1775 48.9375 22.7483 49.1153 22.4318 49.4317C22.1153 49.7482 21.9375 50.1774 21.9375 50.625C21.9375 51.0725 22.1153 51.5018 22.4318 51.8182C22.7483 52.1347 23.1775 52.3125 23.625 52.3125H30.375C30.8226 52.3125 31.2518 52.1347 31.5683 51.8182C31.8848 51.5018 32.0625 51.0725 32.0625 50.625C32.0625 50.1774 31.8848 49.7482 31.5683 49.4317C31.2518 49.1153 30.8226 48.9375 30.375 48.9375ZM32.0625 43.875H21.9375C21.49 43.875 21.0608 44.0528 20.7443 44.3692C20.4278 44.6857 20.25 45.1149 20.25 45.5625C20.25 46.01 20.4278 46.4393 20.7443 46.7557C21.0608 47.0722 21.49 47.25 21.9375 47.25H32.0625C32.5101 47.25 32.9393 47.0722 33.2558 46.7557C33.5723 46.4393 33.75 46.01 33.75 45.5625C33.75 45.1149 33.5723 44.6857 33.2558 44.3692C32.9393 44.0528 32.5101 43.875 32.0625 43.875ZM38.9623 6.61182C35.7909 3.43616 31.5426 1.68749 27 1.68749C24.7825 1.6822 22.5858 2.11508 20.536 2.96125C18.4863 3.80743 16.6239 5.05023 15.0558 6.61827C13.4878 8.18632 12.245 10.0487 11.3988 12.0985C10.5526 14.1482 10.1198 16.3449 10.125 18.5625C10.125 23.4794 12.0098 28.0789 15.293 31.1808L15.7529 31.6121C17.6524 33.3882 20.25 35.8214 20.25 37.9687V40.5C20.25 40.9475 20.4278 41.3768 20.7443 41.6932C21.0608 42.0097 21.49 42.1875 21.9375 42.1875H24.4688C24.6926 42.1875 24.9072 42.0986 25.0654 41.9404C25.2237 41.7821 25.3125 41.5675 25.3125 41.3437V28.9849C25.3126 28.8143 25.2609 28.6476 25.1643 28.507C25.0677 28.3663 24.9308 28.2583 24.7715 28.1971C23.797 27.7995 22.8713 27.2917 22.0124 26.6836C21.8194 26.5603 21.6535 26.3991 21.5248 26.2096C21.3961 26.0202 21.3073 25.8066 21.2638 25.5817C21.2204 25.3569 21.2231 25.1255 21.2719 24.9018C21.3207 24.678 21.4145 24.4665 21.5477 24.2802C21.6808 24.0939 21.8505 23.9366 22.0464 23.8179C22.2423 23.6993 22.4603 23.6218 22.6871 23.5901C22.9139 23.5584 23.1448 23.5732 23.3657 23.6336C23.5866 23.694 23.7929 23.7987 23.972 23.9414C24.7525 24.494 26.2554 25.3125 27 25.3125C27.7447 25.3125 29.2476 24.4919 30.0302 23.9414C30.3945 23.7123 30.8327 23.6311 31.255 23.7144C31.6772 23.7978 32.0517 24.0393 32.3018 24.3896C32.5518 24.7399 32.6586 25.1725 32.6002 25.599C32.5418 26.0254 32.3227 26.4134 31.9877 26.6836C31.1286 27.2906 30.2029 27.7974 29.2286 28.1939C29.0693 28.2551 28.9324 28.3632 28.8358 28.5038C28.7392 28.6445 28.6875 28.8111 28.6875 28.9817V41.3437C28.6875 41.5675 28.7764 41.7821 28.9347 41.9404C29.0929 42.0986 29.3075 42.1875 29.5313 42.1875H32.0625C32.5101 42.1875 32.9393 42.0097 33.2558 41.6932C33.5723 41.3768 33.75 40.9475 33.75 40.5V37.9687C33.75 35.872 36.3193 33.441 38.1956 31.6649L38.7134 31.1734C42.0905 27.9492 43.875 23.5839 43.875 18.5625C43.8862 16.3447 43.4578 14.1468 42.6146 12.0955C41.7714 10.0443 40.53 8.18051 38.9623 6.61182Z" fill="#69696B"/>
</svg>
