<svg width="38" height="38" viewBox="0 0 38 38" fill="none" xmlns="http://www.w3.org/2000/svg">
<rect width="38" height="38" rx="10" fill="#47474A"/>
<path d="M12.4687 29.313H11.0937C10.8202 29.313 10.5579 29.2044 10.3645 29.011C10.1711 28.8176 10.0625 28.5553 10.0625 28.2818V22.0943C10.0625 21.8208 10.1711 21.5585 10.3645 21.3651C10.5579 21.1717 10.8202 21.063 11.0937 21.063H12.4687C12.7423 21.063 13.0046 21.1717 13.198 21.3651C13.3914 21.5585 13.5 21.8208 13.5 22.0943V28.2818C13.5 28.5553 13.3914 28.8176 13.198 29.011C13.0046 29.2044 12.7423 29.313 12.4687 29.313Z" fill="white"/>
<path d="M22.0937 29.3119H20.7187C20.4452 29.3119 20.1829 29.2032 19.9895 29.0098C19.7961 28.8164 19.6875 28.5541 19.6875 28.2806V17.9681C19.6875 17.6946 19.7961 17.4323 19.9895 17.2389C20.1829 17.0455 20.4452 16.9369 20.7187 16.9369H22.0937C22.3673 16.9369 22.6296 17.0455 22.823 17.2389C23.0163 17.4323 23.125 17.6946 23.125 17.9681V28.2806C23.125 28.5541 23.0163 28.8164 22.823 29.0098C22.6296 29.2032 22.3673 29.3119 22.0937 29.3119Z" fill="white"/>
<path d="M26.9062 29.3124H25.5312C25.2577 29.3124 24.9954 29.2037 24.802 29.0103C24.6086 28.8169 24.5 28.5546 24.5 28.2811V13.1561C24.5 12.8826 24.6086 12.6203 24.802 12.4269C24.9954 12.2335 25.2577 12.1249 25.5312 12.1249H26.9062C27.1798 12.1249 27.4421 12.2335 27.6355 12.4269C27.8288 12.6203 27.9375 12.8826 27.9375 13.1561V28.2811C27.9375 28.5546 27.8288 28.8169 27.6355 29.0103C27.4421 29.2037 27.1798 29.3124 26.9062 29.3124Z" fill="white"/>
<path d="M17.2812 29.3121H15.9062C15.6327 29.3121 15.3704 29.2035 15.177 29.0101C14.9836 28.8167 14.875 28.5544 14.875 28.2809V9.71838C14.875 9.44488 14.9836 9.18258 15.177 8.98918C15.3704 8.79578 15.6327 8.68713 15.9062 8.68713H17.2812C17.5548 8.68713 17.8171 8.79578 18.0105 8.98918C18.2039 9.18258 18.3125 9.44488 18.3125 9.71838V28.2809C18.3125 28.5544 18.2039 28.8167 18.0105 29.0101C17.8171 29.2035 17.5548 29.3121 17.2812 29.3121Z" fill="white"/>
</svg>
