<svg width="38" height="38" viewBox="0 0 38 38" fill="none" xmlns="http://www.w3.org/2000/svg">
<rect width="38" height="38" rx="10" fill="white"/>
<path d="M19.2388 12.3523C19.1748 12.2911 19.0897 12.257 19.0012 12.257C18.9127 12.257 18.8275 12.2911 18.7636 12.3523L10.853 19.9093C10.8194 19.9414 10.7927 19.98 10.7745 20.0228C10.7562 20.0655 10.7468 20.1115 10.7469 20.158L10.7456 27.2505C10.7456 27.6151 10.8905 27.9649 11.1483 28.2227C11.4062 28.4806 11.7559 28.6255 12.1206 28.6255H16.2499C16.4322 28.6255 16.6071 28.553 16.736 28.4241C16.865 28.2952 16.9374 28.1203 16.9374 27.938V22.0942C16.9374 22.003 16.9736 21.9156 17.0381 21.8511C17.1025 21.7867 17.19 21.7505 17.2812 21.7505H20.7187C20.8098 21.7505 20.8973 21.7867 20.9617 21.8511C21.0262 21.9156 21.0624 22.003 21.0624 22.0942V27.938C21.0624 28.1203 21.1348 28.2952 21.2638 28.4241C21.3927 28.553 21.5676 28.6255 21.7499 28.6255H25.8775C26.2422 28.6255 26.5919 28.4806 26.8497 28.2227C27.1076 27.9649 27.2525 27.6151 27.2525 27.2505V20.158C27.2525 20.1115 27.2432 20.0655 27.2249 20.0228C27.2067 19.98 27.1799 19.9414 27.1463 19.9093L19.2388 12.3523Z" fill="#828B96"/>
<path d="M29.0943 18.4921L25.8802 15.4172V10.7513C25.8802 10.5689 25.8078 10.3941 25.6789 10.2651C25.5499 10.1362 25.3751 10.0638 25.1927 10.0638H23.1302C22.9479 10.0638 22.773 10.1362 22.6441 10.2651C22.5152 10.3941 22.4427 10.5689 22.4427 10.7513V12.1263L19.954 9.74666C19.7211 9.51119 19.3748 9.37627 19.0005 9.37627C18.6275 9.37627 18.2821 9.51119 18.0492 9.74709L8.90972 18.4912C8.64246 18.749 8.60894 19.1731 8.85215 19.4524C8.91322 19.5229 8.988 19.5803 9.07193 19.621C9.15586 19.6616 9.2472 19.6848 9.34037 19.6891C9.43355 19.6933 9.52662 19.6786 9.61391 19.6457C9.70121 19.6129 9.78091 19.5626 9.84816 19.498L18.7642 10.9781C18.8281 10.9169 18.9133 10.8828 19.0018 10.8828C19.0903 10.8828 19.1754 10.9169 19.2394 10.9781L28.1563 19.498C28.2876 19.6239 28.4636 19.6927 28.6455 19.6891C28.8275 19.6856 29.0006 19.6101 29.1269 19.4791C29.3908 19.2058 29.3689 18.7546 29.0943 18.4921Z" fill="#828B96"/>
</svg>
