<svg width="38" height="38" viewBox="0 0 38 38" fill="none" xmlns="http://www.w3.org/2000/svg">
<rect width="38" height="38" rx="10" fill="#47474A"/>
<path d="M19 24.5L22.6667 20.8333L21.3833 19.55L19.9167 21.0167V17.1667H18.0833V21.0167L16.6167 19.55L15.3333 20.8333L19 24.5ZM12.5833 27.25C12.0792 27.25 11.6476 27.0705 11.2885 26.7115C10.9295 26.3524 10.75 25.9208 10.75 25.4167V13.9813C10.75 13.7674 10.7844 13.5611 10.8531 13.3625C10.9219 13.1639 11.025 12.9806 11.1625 12.8125L12.3083 11.4146C12.4764 11.2007 12.6865 11.0365 12.9385 10.9219C13.1906 10.8073 13.4542 10.75 13.7292 10.75H24.2708C24.5458 10.75 24.8094 10.8073 25.0615 10.9219C25.3135 11.0365 25.5236 11.2007 25.6917 11.4146L26.8375 12.8125C26.975 12.9806 27.0781 13.1639 27.1469 13.3625C27.2156 13.5611 27.25 13.7674 27.25 13.9813V25.4167C27.25 25.9208 27.0705 26.3524 26.7115 26.7115C26.3524 27.0705 25.9208 27.25 25.4167 27.25H12.5833ZM12.95 13.5H25.05L24.2708 12.5833H13.7292L12.95 13.5Z" fill="white"/>
</svg>
