<svg width="38" height="38" viewBox="0 0 38 38" fill="none" xmlns="http://www.w3.org/2000/svg">
<rect width="38" height="38" rx="10" fill="white"/>
<path d="M19.0025 22.85C17.9528 22.85 16.946 22.4444 16.2038 21.7224C15.4615 21.0003 15.0445 20.0211 15.0445 19C15.0445 17.9789 15.4615 16.9997 16.2038 16.2776C16.946 15.5556 17.9528 15.15 19.0025 15.15C20.0522 15.15 21.059 15.5556 21.8012 16.2776C22.5435 16.9997 22.9605 17.9789 22.9605 19C22.9605 20.0211 22.5435 21.0003 21.8012 21.7224C21.059 22.4444 20.0522 22.85 19.0025 22.85ZM27.4048 20.067C27.45 19.715 27.4839 19.363 27.4839 19C27.4839 18.637 27.45 18.274 27.4048 17.9L29.7909 16.107C30.0058 15.942 30.0623 15.645 29.9266 15.403L27.6649 11.597C27.5292 11.355 27.2238 11.256 26.975 11.355L24.1592 12.455C23.5712 12.026 22.9605 11.652 22.2481 11.377L21.8296 8.462C21.8067 8.33244 21.7373 8.21497 21.6338 8.13041C21.5303 8.04585 21.3994 7.99965 21.2642 8H16.7408C16.4581 8 16.2206 8.198 16.1754 8.462L15.7569 11.377C15.0445 11.652 14.4338 12.026 13.8458 12.455L11.0299 11.355C10.7812 11.256 10.4758 11.355 10.3401 11.597L8.0784 15.403C7.93139 15.645 7.99924 15.942 8.21411 16.107L10.6002 17.9C10.555 18.274 10.5211 18.637 10.5211 19C10.5211 19.363 10.555 19.715 10.6002 20.067L8.21411 21.893C7.99924 22.058 7.93139 22.355 8.0784 22.597L10.3401 26.403C10.4758 26.645 10.7812 26.733 11.0299 26.645L13.8458 25.534C14.4338 25.974 15.0445 26.348 15.7569 26.623L16.1754 29.538C16.2206 29.802 16.4581 30 16.7408 30H21.2642C21.5469 30 21.7844 29.802 21.8296 29.538L22.2481 26.623C22.9605 26.337 23.5712 25.974 24.1592 25.534L26.975 26.645C27.2238 26.733 27.5292 26.645 27.6649 26.403L29.9266 22.597C30.0623 22.355 30.0058 22.058 29.7909 21.893L27.4048 20.067Z" fill="#828B96"/>
</svg>
